<svg width="280" height="280" fill="none" xmlns="http://www.w3.org/2000/svg">
    <path d="M28 162.51V264.5c0 7.09 5.73 11.82 12.76 10.57l31.85-5.67V144.45c-12.94 2.57-35.02 6.71-35.02 6.71-5.3.99-9.59 6.08-9.59 11.35zM250.94 151.49c.94-11.96-3.58-12.22-2.73-20.46.85-8.25 2.5-16.67 2.5-16.67 2.09-12.13-6.12-20.79-18.37-19.33l-48.48 5.78c-7.1.85-12.43-4.25-11.89-11.48 0 0 4.5-53.49 4.27-56.48-4.6 8.28-25.29 14.26-30.58 16.1-3.21 1.12-13.34 3.68-18.39 3.45-6.86 32.63-20.63 80.45-43.5 89.4v125.65l140.53-25.13c6.04-1.09 16.17-8.14 16.32-14.14 0 0 .53-4.97-.38-12.35-.92-7.39 5.71-9.14 6.38-20.59.5-8.62-2-11.29-1.22-20.49.77-9.21 4.61-11.3 5.54-23.26zM162.8 4.03c1.27 1.19.7 5.45-.8 7.95 0-6-3-7.95-4.5-7.95-3.61-.28-9.06 1.37-15.58 7.06-4.6 4.01-11.43 17.86-19.94 27.75-4.38 5.09-.49 9.4 5.21 8.66 8.13-1.07 15.36-3.34 17.78-4.06 5.27-1.55 19.54-6.21 26.21-11.96 3.33-2.87 4.26-4.36 4.37-8.05.21-7.17.03-16.83-12.75-19.4z" fill="white"/>
</svg>